# File exported by Houdini 16.0.504.20 (www.sidefx.com)
# 100 points
# 324 vertices
# 81 primitives
# Bounds: [-3.9000001, 4.0999999, -6.44999981] to [3.9000001, 4.0999999, 8.05000019]

# deleted g

v 3.9000001 4.0999999 -6.44999981
v 3.0333333 4.0999999 -6.44999981
v 2.16666675 4.0999999 -6.44999981
v 1.30000019 4.0999999 -6.44999981
v 0.433333397 4.0999999 -6.44999981
v -0.433333397 4.0999999 -6.44999981
v -1.29999971 4.0999999 -6.44999981
v -2.16666651 4.0999999 -6.44999981
v -3.0333333 4.0999999 -6.44999981
v -3.9000001 4.0999999 -6.44999981
v 3.9000001 4.0999999 -4.83888865
v 3.0333333 4.0999999 -4.83888865
v 2.16666675 4.0999999 -4.83888865
v 1.30000019 4.0999999 -4.83888865
v 0.433333397 4.0999999 -4.83888865
v -0.433333397 4.0999999 -4.83888865
v -1.29999971 4.0999999 -4.83888865
v -2.16666651 4.0999999 -4.83888865
v -3.0333333 4.0999999 -4.83888865
v -3.9000001 4.0999999 -4.83888865
v 3.9000001 4.0999999 -3.22777772
v 3.0333333 4.0999999 -3.22777772
v 2.16666675 4.0999999 -3.22777772
v 1.30000019 4.0999999 -3.22777772
v 0.433333397 4.0999999 -3.22777772
v -0.433333397 4.0999999 -3.22777772
v -1.29999971 4.0999999 -3.22777772
v -2.16666651 4.0999999 -3.22777772
v -3.0333333 4.0999999 -3.22777772
v -3.9000001 4.0999999 -3.22777772
v 3.9000001 4.0999999 -1.61666656
v 3.0333333 4.0999999 -1.61666656
v 2.16666675 4.0999999 -1.61666656
v 1.30000019 4.0999999 -1.61666656
v 0.433333397 4.0999999 -1.61666656
v -0.433333397 4.0999999 -1.61666656
v -1.29999971 4.0999999 -1.61666656
v -2.16666651 4.0999999 -1.61666656
v -3.0333333 4.0999999 -1.61666656
v -3.9000001 4.0999999 -1.61666656
v 3.9000001 4.0999999 -0.00555533171
v 3.0333333 4.0999999 -0.00555533171
v 2.16666675 4.0999999 -0.00555533171
v 1.30000019 4.0999999 -0.00555533171
v 0.433333397 4.0999999 -0.00555533171
v -0.433333397 4.0999999 -0.00555533171
v -1.29999971 4.0999999 -0.00555533171
v -2.16666651 4.0999999 -0.00555533171
v -3.0333333 4.0999999 -0.00555533171
v -3.9000001 4.0999999 -0.00555533171
v 3.9000001 4.0999999 1.6055553
v 3.0333333 4.0999999 1.6055553
v 2.16666675 4.0999999 1.6055553
v 1.30000019 4.0999999 1.6055553
v 0.433333397 4.0999999 1.6055553
v -0.433333397 4.0999999 1.6055553
v -1.29999971 4.0999999 1.6055553
v -2.16666651 4.0999999 1.6055553
v -3.0333333 4.0999999 1.6055553
v -3.9000001 4.0999999 1.6055553
v 3.9000001 4.0999999 3.21666694
v 3.0333333 4.0999999 3.21666694
v 2.16666675 4.0999999 3.21666694
v 1.30000019 4.0999999 3.21666694
v 0.433333397 4.0999999 3.21666694
v -0.433333397 4.0999999 3.21666694
v -1.29999971 4.0999999 3.21666694
v -2.16666651 4.0999999 3.21666694
v -3.0333333 4.0999999 3.21666694
v -3.9000001 4.0999999 3.21666694
v 3.9000001 4.0999999 4.82777882
v 3.0333333 4.0999999 4.82777882
v 2.16666675 4.0999999 4.82777882
v 1.30000019 4.0999999 4.82777882
v 0.433333397 4.0999999 4.82777882
v -0.433333397 4.0999999 4.82777882
v -1.29999971 4.0999999 4.82777882
v -2.16666651 4.0999999 4.82777882
v -3.0333333 4.0999999 4.82777882
v -3.9000001 4.0999999 4.82777882
v 3.9000001 4.0999999 6.4388895
v 3.0333333 4.0999999 6.4388895
v 2.16666675 4.0999999 6.4388895
v 1.30000019 4.0999999 6.4388895
v 0.433333397 4.0999999 6.4388895
v -0.433333397 4.0999999 6.4388895
v -1.29999971 4.0999999 6.4388895
v -2.16666651 4.0999999 6.4388895
v -3.0333333 4.0999999 6.4388895
v -3.9000001 4.0999999 6.4388895
v 3.9000001 4.0999999 8.05000019
v 3.0333333 4.0999999 8.05000019
v 2.16666675 4.0999999 8.05000019
v 1.30000019 4.0999999 8.05000019
v 0.433333397 4.0999999 8.05000019
v -0.433333397 4.0999999 8.05000019
v -1.29999971 4.0999999 8.05000019
v -2.16666651 4.0999999 8.05000019
v -3.0333333 4.0999999 8.05000019
v -3.9000001 4.0999999 8.05000019
vt 0 0 0
vt 0 0.111111112 0
vt 0.111111119 0.111111112 0
vt 0.111111119 0 0
vt 0.111111119 0 0
vt 0.111111119 0.111111112 0
vt 0.222222209 0.111111112 0
vt 0.222222209 0 0
vt 0.222222209 0 0
vt 0.222222209 0.111111112 0
vt 0.333333313 0.111111112 0
vt 0.333333313 0 0
vt 0.333333313 0 0
vt 0.333333313 0.111111112 0
vt 0.444444418 0.111111112 0
vt 0.444444418 0 0
vt 0.444444418 0 0
vt 0.444444418 0.111111112 0
vt 0.555555522 0.111111112 0
vt 0.555555522 0 0
vt 0.555555522 0 0
vt 0.555555522 0.111111112 0
vt 0.666666627 0.111111112 0
vt 0.666666627 0 0
vt 0.666666627 0 0
vt 0.666666627 0.111111112 0
vt 0.777777731 0.111111112 0
vt 0.777777731 0 0
vt 0.777777731 0 0
vt 0.777777731 0.111111112 0
vt 0.888888836 0.111111112 0
vt 0.888888836 0 0
vt 0.888888836 0 0
vt 0.888888836 0.111111112 0
vt 0.99999994 0.111111112 0
vt 0.99999994 0 0
vt 0 0.111111112 0
vt 0 0.222222224 0
vt 0.111111119 0.222222224 0
vt 0.111111119 0.111111112 0
vt 0.111111119 0.111111112 0
vt 0.111111119 0.222222224 0
vt 0.222222209 0.222222224 0
vt 0.222222209 0.111111112 0
vt 0.222222209 0.111111112 0
vt 0.222222209 0.222222224 0
vt 0.333333313 0.222222224 0
vt 0.333333313 0.111111112 0
vt 0.333333313 0.111111112 0
vt 0.333333313 0.222222224 0
vt 0.444444418 0.222222224 0
vt 0.444444418 0.111111112 0
vt 0.444444418 0.111111112 0
vt 0.444444418 0.222222224 0
vt 0.555555522 0.222222224 0
vt 0.555555522 0.111111112 0
vt 0.555555522 0.111111112 0
vt 0.555555522 0.222222224 0
vt 0.666666627 0.222222224 0
vt 0.666666627 0.111111112 0
vt 0.666666627 0.111111112 0
vt 0.666666627 0.222222224 0
vt 0.777777731 0.222222224 0
vt 0.777777731 0.111111112 0
vt 0.777777731 0.111111112 0
vt 0.777777731 0.222222224 0
vt 0.888888836 0.222222224 0
vt 0.888888836 0.111111112 0
vt 0.888888836 0.111111112 0
vt 0.888888836 0.222222224 0
vt 0.99999994 0.222222224 0
vt 0.99999994 0.111111112 0
vt 0 0.222222224 0
vt 0 0.333333343 0
vt 0.111111119 0.333333343 0
vt 0.111111119 0.222222224 0
vt 0.111111119 0.222222224 0
vt 0.111111119 0.333333343 0
vt 0.222222209 0.333333343 0
vt 0.222222209 0.222222224 0
vt 0.222222209 0.222222224 0
vt 0.222222209 0.333333343 0
vt 0.333333313 0.333333343 0
vt 0.333333313 0.222222224 0
vt 0.333333313 0.222222224 0
vt 0.333333313 0.333333343 0
vt 0.444444418 0.333333343 0
vt 0.444444418 0.222222224 0
vt 0.444444418 0.222222224 0
vt 0.444444418 0.333333343 0
vt 0.555555522 0.333333343 0
vt 0.555555522 0.222222224 0
vt 0.555555522 0.222222224 0
vt 0.555555522 0.333333343 0
vt 0.666666627 0.333333343 0
vt 0.666666627 0.222222224 0
vt 0.666666627 0.222222224 0
vt 0.666666627 0.333333343 0
vt 0.777777731 0.333333343 0
vt 0.777777731 0.222222224 0
vt 0.777777731 0.222222224 0
vt 0.777777731 0.333333343 0
vt 0.888888836 0.333333343 0
vt 0.888888836 0.222222224 0
vt 0.888888836 0.222222224 0
vt 0.888888836 0.333333343 0
vt 0.99999994 0.333333343 0
vt 0.99999994 0.222222224 0
vt 0 0.333333343 0
vt 0 0.444444448 0
vt 0.111111119 0.444444448 0
vt 0.111111119 0.333333343 0
vt 0.111111119 0.333333343 0
vt 0.111111119 0.444444448 0
vt 0.222222209 0.444444448 0
vt 0.222222209 0.333333343 0
vt 0.222222209 0.333333343 0
vt 0.222222209 0.444444448 0
vt 0.333333313 0.444444448 0
vt 0.333333313 0.333333343 0
vt 0.333333313 0.333333343 0
vt 0.333333313 0.444444448 0
vt 0.444444418 0.444444448 0
vt 0.444444418 0.333333343 0
vt 0.444444418 0.333333343 0
vt 0.444444418 0.444444448 0
vt 0.555555522 0.444444448 0
vt 0.555555522 0.333333343 0
vt 0.555555522 0.333333343 0
vt 0.555555522 0.444444448 0
vt 0.666666627 0.444444448 0
vt 0.666666627 0.333333343 0
vt 0.666666627 0.333333343 0
vt 0.666666627 0.444444448 0
vt 0.777777731 0.444444448 0
vt 0.777777731 0.333333343 0
vt 0.777777731 0.333333343 0
vt 0.777777731 0.444444448 0
vt 0.888888836 0.444444448 0
vt 0.888888836 0.333333343 0
vt 0.888888836 0.333333343 0
vt 0.888888836 0.444444448 0
vt 0.99999994 0.444444448 0
vt 0.99999994 0.333333343 0
vt 0 0.444444448 0
vt 0 0.555555522 0
vt 0.111111119 0.555555522 0
vt 0.111111119 0.444444448 0
vt 0.111111119 0.444444448 0
vt 0.111111119 0.555555522 0
vt 0.222222209 0.555555522 0
vt 0.222222209 0.444444448 0
vt 0.222222209 0.444444448 0
vt 0.222222209 0.555555522 0
vt 0.333333313 0.555555522 0
vt 0.333333313 0.444444448 0
vt 0.333333313 0.444444448 0
vt 0.333333313 0.555555522 0
vt 0.444444418 0.555555522 0
vt 0.444444418 0.444444448 0
vt 0.444444418 0.444444448 0
vt 0.444444418 0.555555522 0
vt 0.555555522 0.555555522 0
vt 0.555555522 0.444444448 0
vt 0.555555522 0.444444448 0
vt 0.555555522 0.555555522 0
vt 0.666666627 0.555555522 0
vt 0.666666627 0.444444448 0
vt 0.666666627 0.444444448 0
vt 0.666666627 0.555555522 0
vt 0.777777731 0.555555522 0
vt 0.777777731 0.444444448 0
vt 0.777777731 0.444444448 0
vt 0.777777731 0.555555522 0
vt 0.888888836 0.555555522 0
vt 0.888888836 0.444444448 0
vt 0.888888836 0.444444448 0
vt 0.888888836 0.555555522 0
vt 0.99999994 0.555555522 0
vt 0.99999994 0.444444448 0
vt 0 0.555555522 0
vt 0 0.666666687 0
vt 0.111111119 0.666666687 0
vt 0.111111119 0.555555522 0
vt 0.111111119 0.555555522 0
vt 0.111111119 0.666666687 0
vt 0.222222209 0.666666687 0
vt 0.222222209 0.555555522 0
vt 0.222222209 0.555555522 0
vt 0.222222209 0.666666687 0
vt 0.333333313 0.666666687 0
vt 0.333333313 0.555555522 0
vt 0.333333313 0.555555522 0
vt 0.333333313 0.666666687 0
vt 0.444444418 0.666666687 0
vt 0.444444418 0.555555522 0
vt 0.444444418 0.555555522 0
vt 0.444444418 0.666666687 0
vt 0.555555522 0.666666687 0
vt 0.555555522 0.555555522 0
vt 0.555555522 0.555555522 0
vt 0.555555522 0.666666687 0
vt 0.666666627 0.666666687 0
vt 0.666666627 0.555555522 0
vt 0.666666627 0.555555522 0
vt 0.666666627 0.666666687 0
vt 0.777777731 0.666666687 0
vt 0.777777731 0.555555522 0
vt 0.777777731 0.555555522 0
vt 0.777777731 0.666666687 0
vt 0.888888836 0.666666687 0
vt 0.888888836 0.555555522 0
vt 0.888888836 0.555555522 0
vt 0.888888836 0.666666687 0
vt 0.99999994 0.666666687 0
vt 0.99999994 0.555555522 0
vt 0 0.666666687 0
vt 0 0.777777851 0
vt 0.111111119 0.777777851 0
vt 0.111111119 0.666666687 0
vt 0.111111119 0.666666687 0
vt 0.111111119 0.777777851 0
vt 0.222222209 0.777777851 0
vt 0.222222209 0.666666687 0
vt 0.222222209 0.666666687 0
vt 0.222222209 0.777777851 0
vt 0.333333313 0.777777851 0
vt 0.333333313 0.666666687 0
vt 0.333333313 0.666666687 0
vt 0.333333313 0.777777851 0
vt 0.444444418 0.777777851 0
vt 0.444444418 0.666666687 0
vt 0.444444418 0.666666687 0
vt 0.444444418 0.777777851 0
vt 0.555555522 0.777777851 0
vt 0.555555522 0.666666687 0
vt 0.555555522 0.666666687 0
vt 0.555555522 0.777777851 0
vt 0.666666627 0.777777851 0
vt 0.666666627 0.666666687 0
vt 0.666666627 0.666666687 0
vt 0.666666627 0.777777851 0
vt 0.777777731 0.777777851 0
vt 0.777777731 0.666666687 0
vt 0.777777731 0.666666687 0
vt 0.777777731 0.777777851 0
vt 0.888888836 0.777777851 0
vt 0.888888836 0.666666687 0
vt 0.888888836 0.666666687 0
vt 0.888888836 0.777777851 0
vt 0.99999994 0.777777851 0
vt 0.99999994 0.666666687 0
vt 0 0.777777851 0
vt 0 0.888888896 0
vt 0.111111119 0.888888896 0
vt 0.111111119 0.777777851 0
vt 0.111111119 0.777777851 0
vt 0.111111119 0.888888896 0
vt 0.222222209 0.888888896 0
vt 0.222222209 0.777777851 0
vt 0.222222209 0.777777851 0
vt 0.222222209 0.888888896 0
vt 0.333333313 0.888888896 0
vt 0.333333313 0.777777851 0
vt 0.333333313 0.777777851 0
vt 0.333333313 0.888888896 0
vt 0.444444418 0.888888896 0
vt 0.444444418 0.777777851 0
vt 0.444444418 0.777777851 0
vt 0.444444418 0.888888896 0
vt 0.555555522 0.888888896 0
vt 0.555555522 0.777777851 0
vt 0.555555522 0.777777851 0
vt 0.555555522 0.888888896 0
vt 0.666666627 0.888888896 0
vt 0.666666627 0.777777851 0
vt 0.666666627 0.777777851 0
vt 0.666666627 0.888888896 0
vt 0.777777731 0.888888896 0
vt 0.777777731 0.777777851 0
vt 0.777777731 0.777777851 0
vt 0.777777731 0.888888896 0
vt 0.888888836 0.888888896 0
vt 0.888888836 0.777777851 0
vt 0.888888836 0.777777851 0
vt 0.888888836 0.888888896 0
vt 0.99999994 0.888888896 0
vt 0.99999994 0.777777851 0
vt 0 0.888888896 0
vt 0 1 0
vt 0.111111119 1 0
vt 0.111111119 0.888888896 0
vt 0.111111119 0.888888896 0
vt 0.111111119 1 0
vt 0.222222209 1 0
vt 0.222222209 0.888888896 0
vt 0.222222209 0.888888896 0
vt 0.222222209 1 0
vt 0.333333313 1 0
vt 0.333333313 0.888888896 0
vt 0.333333313 0.888888896 0
vt 0.333333313 1 0
vt 0.444444418 1 0
vt 0.444444418 0.888888896 0
vt 0.444444418 0.888888896 0
vt 0.444444418 1 0
vt 0.555555522 1 0
vt 0.555555522 0.888888896 0
vt 0.555555522 0.888888896 0
vt 0.555555522 1 0
vt 0.666666627 1 0
vt 0.666666627 0.888888896 0
vt 0.666666627 0.888888896 0
vt 0.666666627 1 0
vt 0.777777731 1 0
vt 0.777777731 0.888888896 0
vt 0.777777731 0.888888896 0
vt 0.777777731 1 0
vt 0.888888836 1 0
vt 0.888888836 0.888888896 0
vt 0.888888836 0.888888896 0
vt 0.888888836 1 0
vt 0.99999994 1 0
vt 0.99999994 0.888888896 0
vn 0 -1 0
vn 0 -1 0
vn 0 -1 0
vn 0 -1 0
vn 0 -1 0
vn 0 -1 0
vn 0 -1 0
vn 0 -1 0
vn 0 -1 0
vn 0 -1 0
vn 0 -1 0
vn 0 -1 0
vn 0 -1 0
vn 0 -1 0
vn 0 -1 0
vn 0 -1 0
vn 0 -1 0
vn 0 -1 0
vn 0 -1 0
vn 0 -1 0
vn 0 -1 0
vn 0 -1 0
vn 0 -1 0
vn 0 -1 0
vn 0 -1 0
vn 0 -1 0
vn 0 -1 0
vn 0 -1 0
vn 0 -1 0
vn 0 -1 0
vn 0 -1 0
vn 0 -1 0
vn 0 -1 0
vn 0 -1 0
vn 0 -1 0
vn 0 -1 0
vn 0 -1 0
vn 0 -1 0
vn 0 -1 0
vn 0 -1 0
vn 0 -1 0
vn 0 -1 0
vn 0 -1 0
vn 0 -1 0
vn 0 -1 0
vn 0 -1 0
vn 0 -1 0
vn 0 -1 0
vn 0 -1 0
vn 0 -1 0
vn 0 -1 0
vn 0 -1 0
vn 0 -1 0
vn 0 -1 0
vn 0 -1 0
vn 0 -1 0
vn 0 -1 0
vn 0 -1 0
vn 0 -1 0
vn 0 -1 0
vn 0 -1 0
vn 0 -1 0
vn 0 -1 0
vn 0 -1 0
vn 0 -1 0
vn 0 -1 0
vn 0 -1 0
vn 0 -1 0
vn 0 -1 0
vn 0 -1 0
vn 0 -1 0
vn 0 -1 0
vn 0 -1 0
vn 0 -1 0
vn 0 -1 0
vn 0 -1 0
vn 0 -1 0
vn 0 -1 0
vn 0 -1 0
vn 0 -1 0
vn 0 -1 0
vn 0 -1 0
vn 0 -1 0
vn 0 -1 0
vn 0 -1 0
vn 0 -1 0
vn 0 -1 0
vn 0 -1 0
vn 0 -1 0
vn 0 -1 0
vn 0 -1 0
vn 0 -1 0
vn 0 -1 0
vn 0 -1 0
vn 0 -1 0
vn 0 -1 0
vn 0 -1 0
vn 0 -1 0
vn 0 -1 0
vn 0 -1 0
g ceiling
f 1/1/1 11/2/11 12/3/12 2/4/2
f 2/5/2 12/6/12 13/7/13 3/8/3
f 3/9/3 13/10/13 14/11/14 4/12/4
f 4/13/4 14/14/14 15/15/15 5/16/5
f 5/17/5 15/18/15 16/19/16 6/20/6
f 6/21/6 16/22/16 17/23/17 7/24/7
f 7/25/7 17/26/17 18/27/18 8/28/8
f 8/29/8 18/30/18 19/31/19 9/32/9
f 9/33/9 19/34/19 20/35/20 10/36/10
f 11/37/11 21/38/21 22/39/22 12/40/12
f 12/41/12 22/42/22 23/43/23 13/44/13
f 13/45/13 23/46/23 24/47/24 14/48/14
f 14/49/14 24/50/24 25/51/25 15/52/15
f 15/53/15 25/54/25 26/55/26 16/56/16
f 16/57/16 26/58/26 27/59/27 17/60/17
f 17/61/17 27/62/27 28/63/28 18/64/18
f 18/65/18 28/66/28 29/67/29 19/68/19
f 19/69/19 29/70/29 30/71/30 20/72/20
f 21/73/21 31/74/31 32/75/32 22/76/22
f 22/77/22 32/78/32 33/79/33 23/80/23
f 23/81/23 33/82/33 34/83/34 24/84/24
f 24/85/24 34/86/34 35/87/35 25/88/25
f 25/89/25 35/90/35 36/91/36 26/92/26
f 26/93/26 36/94/36 37/95/37 27/96/27
f 27/97/27 37/98/37 38/99/38 28/100/28
f 28/101/28 38/102/38 39/103/39 29/104/29
f 29/105/29 39/106/39 40/107/40 30/108/30
f 31/109/31 41/110/41 42/111/42 32/112/32
f 32/113/32 42/114/42 43/115/43 33/116/33
f 33/117/33 43/118/43 44/119/44 34/120/34
f 34/121/34 44/122/44 45/123/45 35/124/35
f 35/125/35 45/126/45 46/127/46 36/128/36
f 36/129/36 46/130/46 47/131/47 37/132/37
f 37/133/37 47/134/47 48/135/48 38/136/38
f 38/137/38 48/138/48 49/139/49 39/140/39
f 39/141/39 49/142/49 50/143/50 40/144/40
f 41/145/41 51/146/51 52/147/52 42/148/42
f 42/149/42 52/150/52 53/151/53 43/152/43
f 43/153/43 53/154/53 54/155/54 44/156/44
f 44/157/44 54/158/54 55/159/55 45/160/45
f 45/161/45 55/162/55 56/163/56 46/164/46
f 46/165/46 56/166/56 57/167/57 47/168/47
f 47/169/47 57/170/57 58/171/58 48/172/48
f 48/173/48 58/174/58 59/175/59 49/176/49
f 49/177/49 59/178/59 60/179/60 50/180/50
f 51/181/51 61/182/61 62/183/62 52/184/52
f 52/185/52 62/186/62 63/187/63 53/188/53
f 53/189/53 63/190/63 64/191/64 54/192/54
f 54/193/54 64/194/64 65/195/65 55/196/55
f 55/197/55 65/198/65 66/199/66 56/200/56
f 56/201/56 66/202/66 67/203/67 57/204/57
f 57/205/57 67/206/67 68/207/68 58/208/58
f 58/209/58 68/210/68 69/211/69 59/212/59
f 59/213/59 69/214/69 70/215/70 60/216/60
f 61/217/61 71/218/71 72/219/72 62/220/62
f 62/221/62 72/222/72 73/223/73 63/224/63
f 63/225/63 73/226/73 74/227/74 64/228/64
f 64/229/64 74/230/74 75/231/75 65/232/65
f 65/233/65 75/234/75 76/235/76 66/236/66
f 66/237/66 76/238/76 77/239/77 67/240/67
f 67/241/67 77/242/77 78/243/78 68/244/68
f 68/245/68 78/246/78 79/247/79 69/248/69
f 69/249/69 79/250/79 80/251/80 70/252/70
f 71/253/71 81/254/81 82/255/82 72/256/72
f 72/257/72 82/258/82 83/259/83 73/260/73
f 73/261/73 83/262/83 84/263/84 74/264/74
f 74/265/74 84/266/84 85/267/85 75/268/75
f 75/269/75 85/270/85 86/271/86 76/272/76
f 76/273/76 86/274/86 87/275/87 77/276/77
f 77/277/77 87/278/87 88/279/88 78/280/78
f 78/281/78 88/282/88 89/283/89 79/284/79
f 79/285/79 89/286/89 90/287/90 80/288/80
f 81/289/81 91/290/91 92/291/92 82/292/82
f 82/293/82 92/294/92 93/295/93 83/296/83
f 83/297/83 93/298/93 94/299/94 84/300/84
f 84/301/84 94/302/94 95/303/95 85/304/85
f 85/305/85 95/306/95 96/307/96 86/308/86
f 86/309/86 96/310/96 97/311/97 87/312/87
f 87/313/87 97/314/97 98/315/98 88/316/88
f 88/317/88 98/318/98 99/319/99 89/320/89
f 89/321/89 99/322/99 100/323/100 90/324/90
