# File exported by Houdini 16.0.504.20 (www.sidefx.com)
# 32 points
# 72 vertices
# 18 primitives
# Bounds: [-3.24000001, -0.00499999989, -6.09000015] to [3.24000049, -0.00499999989, 7.61999989]

# deleted g

v -3.24000001 -0.00499999989 0
v -1.07999992 -0.00499999989 0
v 1.08000016 -0.00499999989 0
v 3.24000049 -0.00499999989 0
v -3.24000001 -0.00499999989 2.53999996
v -1.07999992 -0.00499999989 2.53999996
v 1.08000016 -0.00499999989 2.53999996
v 3.24000049 -0.00499999989 2.53999996
v -3.24000001 -0.00499999989 5.07999992
v -1.07999992 -0.00499999989 5.07999992
v 1.08000016 -0.00499999989 5.07999992
v 3.24000049 -0.00499999989 5.07999992
v -3.24000001 -0.00499999989 7.61999989
v -1.07999992 -0.00499999989 7.61999989
v 1.08000016 -0.00499999989 7.61999989
v 3.24000049 -0.00499999989 7.61999989
v -3.24000001 -0.00499999989 -6.09000015
v -1.07999992 -0.00499999989 -6.09000015
v 1.08000016 -0.00499999989 -6.09000015
v 3.24000049 -0.00499999989 -6.09000015
v -3.24000001 -0.00499999989 -4.06000042
v -1.07999992 -0.00499999989 -4.06000042
v 1.08000016 -0.00499999989 -4.06000042
v 3.24000049 -0.00499999989 -4.06000042
v -3.24000001 -0.00499999989 -2.03000021
v -1.07999992 -0.00499999989 -2.03000021
v 1.08000016 -0.00499999989 -2.03000021
v 3.24000049 -0.00499999989 -2.03000021
v -3.24000001 -0.00499999989 0
v -1.07999992 -0.00499999989 0
v 1.08000016 -0.00499999989 0
v 3.24000049 -0.00499999989 0
vt 3.5902211e-08 0.534101665 0
vt 3.5902211e-08 0.356067777 0
vt 0.325263143 0.356067777 0
vt 0.325263202 0.534101665 0
vt 0.325263202 0.534101665 0
vt 0.325263143 0.356067777 0
vt 0.650526226 0.356067777 0
vt 0.650526285 0.534101665 0
vt 0.650526285 0.534101665 0
vt 0.650526226 0.356067777 0
vt 0.975789487 0.356067777 0
vt 0.975789487 0.534101665 0
vt 3.5902211e-08 0.356067777 0
vt 0 0.178033888 0
vt 0.325263113 0.178033888 0
vt 0.325263143 0.356067777 0
vt 0.325263143 0.356067777 0
vt 0.325263113 0.178033888 0
vt 0.650526226 0.178033888 0
vt 0.650526226 0.356067777 0
vt 0.650526226 0.356067777 0
vt 0.650526226 0.178033888 0
vt 0.975789428 0.178033888 0
vt 0.975789487 0.356067777 0
vt 0 0.178033888 0
vt 0 0 0
vt 0.325263113 0 0
vt 0.325263113 0.178033888 0
vt 0.325263113 0.178033888 0
vt 0.325263113 0 0
vt 0.650526226 0 0
vt 0.650526226 0.178033888 0
vt 0.650526226 0.178033888 0
vt 0.650526226 0 0
vt 0.975789428 0 0
vt 0.975789428 0.178033888 0
vt 3.5902211e-08 0.980481267 0
vt 3.5902211e-08 0.838194311 0
vt 0.325263143 0.838194311 0
vt 0.325263202 0.980481267 0
vt 0.325263202 0.980481267 0
vt 0.325263143 0.838194311 0
vt 0.650526226 0.838194311 0
vt 0.650526285 0.980481267 0
vt 0.650526285 0.980481267 0
vt 0.650526226 0.838194311 0
vt 0.975789487 0.838194311 0
vt 0.975789487 0.980481267 0
vt 3.5902211e-08 0.838194311 0
vt 0 0.695907354 0
vt 0.325263143 0.695907354 0
vt 0.325263143 0.838194311 0
vt 0.325263143 0.838194311 0
vt 0.325263143 0.695907354 0
vt 0.650526226 0.695907354 0
vt 0.650526226 0.838194311 0
vt 0.650526226 0.838194311 0
vt 0.650526226 0.695907354 0
vt 0.975789428 0.695907354 0
vt 0.975789487 0.838194311 0
vt 0 0.695907354 0
vt 0 0.553620398 0
vt 0.325263113 0.553620398 0
vt 0.325263143 0.695907354 0
vt 0.325263143 0.695907354 0
vt 0.325263113 0.553620398 0
vt 0.650526226 0.553620398 0
vt 0.650526226 0.695907354 0
vt 0.650526226 0.695907354 0
vt 0.650526226 0.553620398 0
vt 0.975789428 0.553620398 0
vt 0.975789428 0.695907354 0
vn 0 1 0
vn 0 1 0
vn 0 1 0
vn 0 1 0
vn 0 1 0
vn 0 1 0
vn 0 1 0
vn 0 1 0
vn 0 1 0
vn 0 1 0
vn 0 1 0
vn 0 1 0
vn 0 1 0
vn 0 1 0
vn 0 1 0
vn 0 1 0
vn 0 1 0
vn 0 1 0
vn 0 1 0
vn 0 1 0
vn 0 1 0
vn 0 1 0
vn 0 1 0
vn 0 1 0
vn 0 1 0
vn 0 1 0
vn 0 1 0
vn 0 1 0
vn 0 1 0
vn 0 1 0
vn 0 1 0
vn 0 1 0
g floor
f 1/1/1 5/2/5 6/3/6 2/4/2
f 2/5/2 6/6/6 7/7/7 3/8/3
f 3/9/3 7/10/7 8/11/8 4/12/4
f 5/13/5 9/14/9 10/15/10 6/16/6
f 6/17/6 10/18/10 11/19/11 7/20/7
f 7/21/7 11/22/11 12/23/12 8/24/8
f 9/25/9 13/26/13 14/27/14 10/28/10
f 10/29/10 14/30/14 15/31/15 11/32/11
f 11/33/11 15/34/15 16/35/16 12/36/12
f 17/37/17 21/38/21 22/39/22 18/40/18
f 18/41/18 22/42/22 23/43/23 19/44/19
f 19/45/19 23/46/23 24/47/24 20/48/20
f 21/49/21 25/50/25 26/51/26 22/52/22
f 22/53/22 26/54/26 27/55/27 23/56/23
f 23/57/23 27/58/27 28/59/28 24/60/24
f 25/61/25 29/62/29 30/63/30 26/64/26
f 26/65/26 30/66/30 31/67/31 27/68/27
f 27/69/27 31/70/31 32/71/32 28/72/28
