# File exported by Houdini 16.0.504.20 (www.sidefx.com)
# 70 points
# 192 vertices
# 48 primitives
# Bounds: [-3.4000001, 0, 0.034799993] to [3.4000001, 4.0999999, 1.96519995]

# deleted g

v 3.4000001 0 1.48259997
v 3.4000001 0 0.517400026
v 3.15869999 0 0.582056165
v 2.98205614 0 0.758700013
v 2.91740012 0 1
v 2.98205614 0 1.24129999
v 3.15870023 0 1.41794395
v 3.4000001 3.5 1.48259997
v 3.4000001 3.5 0.517400026
v 3.15869999 3.5 0.582056165
v 2.98205614 3.5 0.758700013
v 2.91740012 3.5 1
v 2.98205614 3.5 1.24129999
v 3.15870023 3.5 1.41794395
v 3.4000001 3.60000014 1.53085995
v 3.4000001 3.60000014 0.469139993
v 3.13457012 3.60000014 0.540261805
v 2.94026184 3.60000014 0.734570026
v 2.86914015 3.60000014 1
v 2.94026184 3.60000014 1.26542997
v 3.13457012 3.60000014 1.45973837
v 3.4000001 4 1.96519995
v 3.4000001 4 0.034799993
v 2.91739988 4 0.164112389
v 2.56411219 4 0.517400086
v 2.43480015 4 1
v 2.56411219 4 1.48259997
v 2.91740036 4 1.83588791
v 3.4000001 4.0999999 1.96519995
v 3.4000001 4.0999999 0.034799993
v 2.91739988 4.0999999 0.164112389
v 2.56411219 4.0999999 0.517400086
v 2.43480015 4.0999999 1
v 2.56411219 4.0999999 1.48259997
v 2.91740036 4.0999999 1.83588791
v -3.4000001 0 0.517400026
v -3.4000001 0 1.48259997
v -3.15869999 0 1.41794384
v -2.98205614 0 1.24129999
v -2.91740012 0 1
v -2.98205614 0 0.758700013
v -3.15870023 0 0.582056046
v -3.4000001 3.5 0.517400026
v -3.4000001 3.5 1.48259997
v -3.15869999 3.5 1.41794384
v -2.98205614 3.5 1.24129999
v -2.91740012 3.5 1
v -2.98205614 3.5 0.758700013
v -3.15870023 3.5 0.582056046
v -3.4000001 3.60000014 0.469139993
v -3.4000001 3.60000014 1.53085995
v -3.13457012 3.60000014 1.45973825
v -2.94026184 3.60000014 1.26542997
v -2.86914015 3.60000014 1
v -2.94026184 3.60000014 0.734570026
v -3.13457012 3.60000014 0.540261626
v -3.4000001 4 0.034799993
v -3.4000001 4 1.96519995
v -2.91739988 4 1.83588767
v -2.56411219 4 1.48259997
v -2.43480015 4 1
v -2.56411219 4 0.517400086
v -2.91740036 4 0.164112091
v -3.4000001 4.0999999 0.034799993
v -3.4000001 4.0999999 1.96519995
v -2.91739988 4.0999999 1.83588767
v -2.56411219 4.0999999 1.48259997
v -2.43480015 4.0999999 1
v -2.56411219 4.0999999 0.517400086
v -2.91740036 4.0999999 0.164112091
vt 0.981212437 0.0148322862 0
vt 0.936715543 0.0108579863 0
vt 0.936715543 0.619362414 0
vt 0.981212437 0.623336673 0
vt 0.936715543 0.0108579863 0
vt 0.904141605 0 0
vt 0.904141605 0.608504415 0
vt 0.936715543 0.619362414 0
vt 0.55828321 1.09913749e-08 0
vt 0.525709212 0.0108579835 0
vt 0.525709212 0.619362414 0
vt 0.55828321 0.608504415 0
vt 0.525709212 0.0108579835 0
vt 0.481212407 0.014832289 0
vt 0.481212407 0.623336673 0
vt 0.525709212 0.619362414 0
vt 0.481212407 0.014832289 0
vt 0.436715454 0.0108579835 0
vt 0.436715454 0.619362414 0
vt 0.481212407 0.623336673 0
vt 0.436715454 0.0108579835 0
vt 0.404141545 0 0
vt 0.404141545 0.608504415 0
vt 0.436715454 0.619362414 0
vt 0.981212437 0.623336673 0
vt 0.936715543 0.619362414 0
vt 0.932265937 0.639317274 0
vt 0.981212437 0.643689036 0
vt 0.936715543 0.619362414 0
vt 0.904141605 0.608504415 0
vt 0.896434546 0.627373517 0
vt 0.932265937 0.639317274 0
vt 0.55828321 0.608504415 0
vt 0.525709212 0.619362414 0
vt 0.530158877 0.639317214 0
vt 0.565990269 0.627373457 0
vt 0.525709212 0.619362414 0
vt 0.481212407 0.623336673 0
vt 0.481212378 0.643688917 0
vt 0.530158877 0.639317214 0
vt 0.481212407 0.623336673 0
vt 0.436715454 0.619362414 0
vt 0.432265818 0.639317214 0
vt 0.481212378 0.643688917 0
vt 0.436715454 0.619362414 0
vt 0.404141545 0.608504415 0
vt 0.396434486 0.627373457 0
vt 0.432265818 0.639317214 0
vt 0.981212437 0.643689036 0
vt 0.932265937 0.639317274 0
vt 0.892218709 0.731981874 0
vt 0.981212437 0.739930451 0
vt 0.932265937 0.639317274 0
vt 0.896434546 0.627373517 0
vt 0.827070832 0.710265875 0
vt 0.892218709 0.731981874 0
vt 0.565990269 0.627373457 0
vt 0.530158877 0.639317214 0
vt 0.570206046 0.731981754 0
vt 0.635353982 0.710265875 0
vt 0.530158877 0.639317214 0
vt 0.481212378 0.643688917 0
vt 0.481212407 0.739930451 0
vt 0.570206046 0.731981754 0
vt 0.481212378 0.643688917 0
vt 0.432265818 0.639317214 0
vt 0.392218649 0.731981754 0
vt 0.481212407 0.739930451 0
vt 0.432265818 0.639317214 0
vt 0.396434486 0.627373457 0
vt 0.327070773 0.710265815 0
vt 0.392218649 0.731981754 0
vt 0.981212437 0.739930451 0
vt 0.892218709 0.731981874 0
vt 0.892218709 0.749367654 0
vt 0.981212437 0.757316291 0
vt 0.892218709 0.731981874 0
vt 0.827070832 0.710265875 0
vt 0.827070832 0.727651715 0
vt 0.892218709 0.749367654 0
vt 0.635353982 0.710265875 0
vt 0.570206046 0.731981754 0
vt 0.570206046 0.749367595 0
vt 0.635353982 0.727651715 0
vt 0.570206046 0.731981754 0
vt 0.481212407 0.739930451 0
vt 0.481212407 0.757316291 0
vt 0.570206046 0.749367595 0
vt 0.481212407 0.739930451 0
vt 0.392218649 0.731981754 0
vt 0.392218649 0.749367595 0
vt 0.481212407 0.757316291 0
vt 0.392218649 0.731981754 0
vt 0.327070773 0.710265815 0
vt 0.327070773 0.727651596 0
vt 0.392218649 0.749367595 0
vt 0.231212407 0 0
vt 0.198638454 0.0108579947 0
vt 0.198638454 0.619362414 0
vt 0.231212407 0.608504415 0
vt 0.198638454 0.0108579947 0
vt 0.15414159 0.0148323001 0
vt 0.15414159 0.623336732 0
vt 0.198638454 0.619362414 0
vt 0.15414159 0.0148323001 0
vt 0.109644771 0.0108579835 0
vt 0.109644771 0.619362414 0
vt 0.15414159 0.623336732 0
vt 0.109644771 0.0108579835 0
vt 0.0770708174 1.09913749e-08 0
vt 0.0770708174 0.608504474 0
vt 0.109644771 0.619362414 0
vt 0.731212378 0 0
vt 0.69863838 0.0108579891 0
vt 0.69863838 0.619362414 0
vt 0.731212378 0.608504415 0
vt 0.69863838 0.0108579891 0
vt 0.654141545 0.0148322806 0
vt 0.654141545 0.623336673 0
vt 0.69863838 0.619362414 0
vt 0.231212407 0.608504415 0
vt 0.198638454 0.619362414 0
vt 0.203088164 0.639317274 0
vt 0.238919511 0.627373457 0
vt 0.198638454 0.619362414 0
vt 0.15414159 0.623336732 0
vt 0.154141635 0.643688977 0
vt 0.203088164 0.639317274 0
vt 0.15414159 0.623336732 0
vt 0.109644771 0.619362414 0
vt 0.105195105 0.639317274 0
vt 0.154141635 0.643688977 0
vt 0.109644771 0.619362414 0
vt 0.0770708174 0.608504474 0
vt 0.0693637505 0.627373457 0
vt 0.105195105 0.639317274 0
vt 0.731212378 0.608504415 0
vt 0.69863838 0.619362414 0
vt 0.703088105 0.639317274 0
vt 0.738919437 0.627373517 0
vt 0.69863838 0.619362414 0
vt 0.654141545 0.623336673 0
vt 0.654141545 0.643689036 0
vt 0.703088105 0.639317274 0
vt 0.238919511 0.627373457 0
vt 0.203088164 0.639317274 0
vt 0.243135318 0.731981933 0
vt 0.30828324 0.710265875 0
vt 0.203088164 0.639317274 0
vt 0.154141635 0.643688977 0
vt 0.15414159 0.739930451 0
vt 0.243135318 0.731981933 0
vt 0.154141635 0.643688977 0
vt 0.105195105 0.639317274 0
vt 0.0651479438 0.731981874 0
vt 0.15414159 0.739930451 0
vt 0.105195105 0.639317274 0
vt 0.0693637505 0.627373457 0
vt 0 0.710265875 0
vt 0.0651479438 0.731981874 0
vt 0.738919437 0.627373517 0
vt 0.703088105 0.639317274 0
vt 0.743135214 0.731981874 0
vt 0.80828321 0.710265875 0
vt 0.703088105 0.639317274 0
vt 0.654141545 0.643689036 0
vt 0.654141545 0.739930451 0
vt 0.743135214 0.731981874 0
vt 0.30828324 0.710265875 0
vt 0.243135318 0.731981933 0
vt 0.243135318 0.749367654 0
vt 0.30828324 0.727651656 0
vt 0.243135318 0.731981933 0
vt 0.15414159 0.739930451 0
vt 0.15414159 0.757316291 0
vt 0.243135318 0.749367654 0
vt 0.15414159 0.739930451 0
vt 0.0651479438 0.731981874 0
vt 0.0651479438 0.749367654 0
vt 0.15414159 0.757316291 0
vt 0.0651479438 0.731981874 0
vt 0 0.710265875 0
vt 0 0.727651715 0
vt 0.0651479438 0.749367654 0
vt 0.80828321 0.710265875 0
vt 0.743135214 0.731981874 0
vt 0.743135214 0.749367654 0
vt 0.80828321 0.727651715 0
vt 0.743135214 0.731981874 0
vt 0.654141545 0.739930451 0
vt 0.654141545 0.757316291 0
vt 0.743135214 0.749367654 0
vn -0.258818597 0 0.965925932
vn -0.258819014 0 -0.965925872
vn -0.5 0 -0.866025507
vn -0.866025507 0 -0.499999791
vn -1 0 -4.62804479e-08
vn -0.866025448 0 0.50000006
vn -0.499999613 0 0.866025686
vn -0.252687216 -0.216379002 0.943042517
vn -0.252687603 -0.216378838 -0.943042517
vn -0.487336248 -0.223635733 -0.844091475
vn -0.844091535 -0.223635316 -0.487336546
vn -0.974672973 -0.223635241 -1.57746598e-08
vn -0.844091415 -0.223635942 0.487336308
vn -0.48733598 -0.223636523 0.844091356
vn -0.210236967 -0.583248734 0.784615338
vn -0.210237235 -0.583248794 -0.784615338
vn -0.401276141 -0.596581578 -0.695030749
vn -0.695030928 -0.596581221 -0.401276439
vn -0.80255276 -0.596581221 7.75541231e-09
vn -0.695030689 -0.596581757 0.401276082
vn -0.401275903 -0.596582234 0.69503051
vn -0.237919822 -0.393667996 0.887930095
vn -0.23792021 -0.393668145 -0.887929797
vn -0.457090437 -0.405306607 -0.791703761
vn -0.791703999 -0.405306637 -0.457090139
vn -0.914180815 -0.405306488 -1.66893166e-08
vn -0.791703939 -0.405306578 0.457090229
vn -0.457090229 -0.405306488 0.791703939
vn -0.258818597 0 0.965925932
vn -0.258819163 0 -0.965925813
vn -0.5 0 -0.866025388
vn -0.866025567 0 -0.499999642
vn -1 0 -3.08536272e-08
vn -0.866025686 0 0.499999613
vn -0.499999791 0 0.866025507
vn 0.258818716 0 -0.965925932
vn 0.258818895 0 0.965925932
vn 0.499999881 0 0.866025567
vn 0.866025448 0 0.499999851
vn 1 0 -4.62804479e-08
vn 0.866025448 0 -0.49999994
vn 0.499999732 0 -0.866025627
vn 0.252687216 -0.216379255 -0.943042576
vn 0.252687335 -0.216378421 0.943042696
vn 0.487336099 -0.223635972 0.844091535
vn 0.844091356 -0.223635733 0.487336367
vn 0.974672973 -0.223635241 -3.15493196e-08
vn 0.844091475 -0.223635882 -0.487336189
vn 0.487336129 -0.223636642 -0.844091356
vn 0.210236832 -0.583249152 -0.784615159
vn 0.210236877 -0.583248436 0.784615695
vn 0.401275903 -0.596581817 0.695030749
vn 0.695030868 -0.596581638 0.401276231
vn 0.80255276 -0.596581221 -7.75541231e-09
vn 0.695030868 -0.596581697 -0.401276022
vn 0.401275903 -0.596582353 -0.695030391
vn 0.237919748 -0.393668145 -0.887929857
vn 0.237919852 -0.393668145 0.887929857
vn 0.457090318 -0.405306578 0.79170382
vn 0.791703999 -0.405306578 0.457090139
vn 0.914180815 -0.405306488 -1.66893166e-08
vn 0.791703939 -0.405306518 -0.45709011
vn 0.457090348 -0.405306548 -0.79170382
vn 0.258818597 0 -0.965925932
vn 0.258818895 0 0.965925932
vn 0.499999791 0 0.866025507
vn 0.866025627 0 0.499999702
vn 1 0 -3.08536272e-08
vn 0.866025686 0 -0.499999523
vn 0.499999911 0 -0.866025448
g pillars
f 2/1/2 3/2/3 10/3/10 9/4/9
f 3/5/3 4/6/4 11/7/11 10/8/10
f 4/9/4 5/10/5 12/11/12 11/12/11
f 5/13/5 6/14/6 13/15/13 12/16/12
f 6/17/6 7/18/7 14/19/14 13/20/13
f 7/21/7 1/22/1 8/23/8 14/24/14
f 9/25/9 10/26/10 17/27/17 16/28/16
f 10/29/10 11/30/11 18/31/18 17/32/17
f 11/33/11 12/34/12 19/35/19 18/36/18
f 12/37/12 13/38/13 20/39/20 19/40/19
f 13/41/13 14/42/14 21/43/21 20/44/20
f 14/45/14 8/46/8 15/47/15 21/48/21
f 16/49/16 17/50/17 24/51/24 23/52/23
f 17/53/17 18/54/18 25/55/25 24/56/24
f 18/57/18 19/58/19 26/59/26 25/60/25
f 19/61/19 20/62/20 27/63/27 26/64/26
f 20/65/20 21/66/21 28/67/28 27/68/27
f 21/69/21 15/70/15 22/71/22 28/72/28
f 23/73/23 24/74/24 31/75/31 30/76/30
f 24/77/24 25/78/25 32/79/32 31/80/31
f 25/81/25 26/82/26 33/83/33 32/84/32
f 26/85/26 27/86/27 34/87/34 33/88/33
f 27/89/27 28/90/28 35/91/35 34/92/34
f 28/93/28 22/94/22 29/95/29 35/96/35
f 37/97/37 38/98/38 45/99/45 44/100/44
f 38/101/38 39/102/39 46/103/46 45/104/45
f 39/105/39 40/106/40 47/107/47 46/108/46
f 40/109/40 41/110/41 48/111/48 47/112/47
f 41/113/41 42/114/42 49/115/49 48/116/48
f 42/117/42 36/118/36 43/119/43 49/120/49
f 44/121/44 45/122/45 52/123/52 51/124/51
f 45/125/45 46/126/46 53/127/53 52/128/52
f 46/129/46 47/130/47 54/131/54 53/132/53
f 47/133/47 48/134/48 55/135/55 54/136/54
f 48/137/48 49/138/49 56/139/56 55/140/55
f 49/141/49 43/142/43 50/143/50 56/144/56
f 51/145/51 52/146/52 59/147/59 58/148/58
f 52/149/52 53/150/53 60/151/60 59/152/59
f 53/153/53 54/154/54 61/155/61 60/156/60
f 54/157/54 55/158/55 62/159/62 61/160/61
f 55/161/55 56/162/56 63/163/63 62/164/62
f 56/165/56 50/166/50 57/167/57 63/168/63
f 58/169/58 59/170/59 66/171/66 65/172/65
f 59/173/59 60/174/60 67/175/67 66/176/66
f 60/177/60 61/178/61 68/179/68 67/180/67
f 61/181/61 62/182/62 69/183/69 68/184/68
f 62/185/62 63/186/63 70/187/70 69/188/69
f 63/189/63 57/190/57 64/191/64 70/192/70
